<?xml version="1.0" standalone="no"?>
<!DOCTYPE svg PUBLIC "-//W3C//DTD SVG 20010904//EN"
 "http://www.w3.org/TR/2001/REC-SVG-20010904/DTD/svg10.dtd">
<svg version="1.0" xmlns="http://www.w3.org/2000/svg"
 width="1121.000000pt" height="1120.000000pt" viewBox="0 0 1121.000000 1120.000000"
 preserveAspectRatio="xMidYMid meet">

<g transform="translate(0.000000,1120.000000) scale(0.100000,-0.100000)"
fill="#000000" stroke="none">
<path d="M2998 10588 c17 -6 -31 -10 -133 -9 -38 1 -46 -2 -35 -10 11 -8 7 -9
-17 -5 -20 3 -33 1 -33 -5 0 -7 -11 -8 -30 -4 -20 4 -30 3 -30 -5 0 -7 -8 -9
-19 -5 -11 3 -22 1 -26 -5 -3 -5 -18 -7 -32 -4 -19 5 -24 4 -19 -5 6 -9 0 -10
-20 -5 -19 5 -25 4 -20 -5 6 -9 0 -10 -20 -5 -19 5 -25 4 -20 -5 6 -9 0 -10
-20 -5 -21 5 -25 4 -19 -6 6 -10 4 -12 -8 -7 -10 3 -17 2 -17 -4 0 -6 -9 -8
-20 -4 -12 4 -20 2 -20 -5 0 -6 -4 -8 -10 -5 -5 3 -10 1 -10 -5 0 -7 -8 -9
-20 -5 -12 4 -20 2 -20 -5 0 -6 -4 -8 -10 -5 -5 3 -10 1 -10 -5 0 -7 -8 -9
-21 -5 -16 5 -19 4 -14 -6 6 -9 3 -11 -8 -6 -10 3 -17 2 -17 -2 0 -5 -9 -7
-20 -4 -12 3 -22 -1 -26 -10 -3 -9 -12 -13 -21 -10 -12 5 -14 3 -8 -7 6 -10 4
-12 -8 -7 -10 3 -17 3 -17 -2 0 -4 -10 -7 -22 -7 -14 1 -22 -4 -20 -12 2 -9
-4 -11 -18 -7 -13 4 -22 1 -26 -9 -3 -8 -12 -12 -20 -9 -7 3 -16 -2 -20 -10
-3 -9 -12 -13 -20 -10 -7 3 -16 -2 -20 -10 -3 -9 -12 -13 -19 -11 -7 3 -16 0
-21 -7 -4 -8 -3 -10 4 -5 7 4 12 5 12 2 0 -10 -55 -32 -71 -29 -9 2 -22 -4
-30 -13 -9 -12 -10 -15 -1 -10 6 4 12 5 12 2 0 -3 -10 -10 -21 -17 -16 -8 -20
-8 -14 1 6 9 2 9 -14 1 -11 -7 -21 -14 -21 -17 0 -3 5 -2 12 2 6 4 8 3 5 -4
-4 -5 -15 -8 -25 -5 -10 2 -25 -3 -33 -13 -12 -15 -12 -16 0 -9 9 5 12 4 7 -3
-4 -6 -13 -9 -20 -6 -7 3 -26 -7 -42 -22 -16 -14 -21 -21 -11 -14 9 7 17 10
17 7 0 -3 -15 -16 -32 -28 -29 -20 -31 -21 -18 -4 14 19 14 19 -5 6 -11 -8
-35 -30 -54 -50 -19 -20 -28 -27 -20 -16 13 19 13 19 -6 5 -44 -32 -71 -55
-75 -65 -3 -5 -9 -9 -13 -7 -5 1 -6 -2 -3 -7 3 -5 -2 -15 -11 -22 -14 -12 -16
-12 -8 0 8 13 -14 -1 -67 -42 -10 -8 -18 -18 -18 -22 0 -5 15 4 33 20 17 16
-17 -21 -78 -83 -60 -61 -112 -112 -114 -112 -3 0 6 11 19 25 13 14 20 25 16
25 -11 0 -51 -52 -51 -66 0 -18 -36 -54 -53 -54 -8 0 -12 -6 -9 -14 3 -8 -2
-20 -11 -28 -16 -12 -16 -11 -2 7 15 20 15 20 -8 1 -12 -11 -20 -25 -18 -33 3
-7 -8 -22 -24 -33 -31 -22 -65 -70 -38 -54 7 4 -2 -6 -19 -23 -33 -31 -44 -51
-20 -37 6 4 -3 -6 -20 -23 -34 -32 -43 -49 -20 -38 6 4 0 -3 -16 -15 -15 -12
-27 -27 -27 -33 0 -6 7 -2 16 9 14 18 15 18 4 -3 -6 -13 -15 -23 -20 -23 -5 0
-14 -10 -21 -21 -9 -17 -8 -20 3 -14 7 4 0 -4 -16 -17 -20 -17 -27 -30 -23
-41 4 -10 2 -16 -6 -14 -7 1 -12 -7 -13 -18 -1 -34 -15 -65 -27 -62 -7 1 -12
-8 -11 -20 0 -12 -4 -21 -10 -20 -6 1 -11 -8 -10 -20 0 -13 -3 -23 -7 -23 -5
0 -5 -7 -2 -17 5 -12 3 -14 -7 -8 -10 6 -12 4 -7 -8 3 -9 0 -18 -9 -21 -10 -4
-13 -13 -9 -26 4 -14 2 -20 -7 -18 -9 2 -12 -6 -11 -25 1 -15 -2 -25 -7 -22
-11 7 -24 -31 -15 -45 3 -5 1 -10 -5 -10 -7 0 -9 -7 -6 -16 4 -10 2 -13 -6 -8
-7 5 -9 1 -6 -12 3 -11 -1 -26 -9 -33 -9 -8 -12 -22 -8 -38 4 -18 2 -23 -6
-17 -9 5 -10 1 -7 -14 4 -12 2 -22 -4 -22 -5 0 -6 -9 -3 -20 4 -12 2 -20 -5
-20 -7 0 -9 -8 -5 -20 4 -12 2 -20 -5 -20 -7 0 -9 -8 -5 -20 4 -12 2 -20 -5
-20 -8 0 -10 -9 -6 -24 3 -14 1 -28 -4 -31 -6 -4 -8 -15 -5 -26 4 -11 2 -19
-5 -19 -8 0 -9 -10 -5 -30 4 -19 3 -30 -5 -30 -7 0 -9 -13 -5 -37 4 -29 3 -33
-4 -18 -8 15 -10 4 -10 -45 0 -36 -1 -94 -2 -130 -1 -60 -2 -62 -9 -25 -4 22
-7 -1123 -7 -2545 0 -1422 3 -2567 7 -2545 7 37 8 35 9 -25 1 -36 2 -94 2
-130 0 -49 2 -60 10 -45 7 15 8 11 4 -17 -4 -25 -2 -38 5 -38 8 0 9 -11 5 -30
-4 -20 -3 -30 5 -30 7 0 9 -8 5 -19 -3 -11 -1 -22 5 -26 5 -3 7 -17 4 -31 -4
-15 -2 -24 6 -24 7 0 9 -8 5 -20 -4 -12 -2 -20 5 -20 7 0 9 -8 5 -20 -4 -12
-2 -20 5 -20 7 0 9 -8 5 -20 -3 -11 -2 -20 3 -20 6 0 8 -10 4 -22 -3 -15 -2
-19 7 -14 8 6 10 1 6 -17 -4 -16 -1 -30 8 -38 8 -7 12 -22 9 -33 -3 -13 -1
-17 6 -12 8 5 10 2 6 -8 -3 -9 -1 -16 6 -16 6 0 8 -5 5 -10 -9 -14 4 -52 15
-45 5 3 8 -7 7 -22 -1 -19 2 -27 11 -25 9 2 11 -4 7 -18 -4 -13 -1 -22 9 -26
9 -3 12 -12 9 -21 -5 -12 -3 -14 7 -8 10 6 12 4 7 -8 -3 -10 -3 -17 2 -17 4 0
7 -10 7 -22 -1 -13 4 -22 10 -21 6 1 10 -8 10 -20 -1 -12 4 -21 11 -20 12 3
26 -28 27 -62 1 -11 6 -19 13 -18 8 2 10 -4 6 -14 -4 -11 3 -24 23 -41 16 -13
23 -21 16 -17 -11 6 -12 3 -3 -14 7 -11 16 -21 21 -21 5 0 14 -10 20 -22 11
-22 10 -22 -4 -4 -9 11 -16 15 -16 9 0 -6 12 -21 27 -33 16 -12 22 -19 16 -15
-23 11 -14 -6 19 -38 18 -17 27 -27 21 -23 -24 14 -13 -6 20 -37 17 -17 26
-27 19 -23 -27 16 7 -32 38 -54 16 -11 27 -26 24 -33 -2 -8 6 -22 18 -33 23
-19 23 -19 8 1 -14 18 -14 19 2 7 9 -8 14 -20 11 -28 -3 -8 1 -14 9 -14 17 0
53 -36 53 -54 0 -14 40 -66 51 -66 4 0 -3 12 -16 27 -14 16 26 -21 88 -82 62
-60 112 -112 112 -114 0 -3 -13 8 -30 24 -16 16 -30 25 -30 20 0 -4 8 -14 17
-22 54 -41 76 -55 68 -42 -8 12 -6 12 8 0 9 -7 14 -17 11 -22 -3 -5 -1 -8 4
-7 6 2 10 -1 11 -5 0 -7 29 -33 76 -67 19 -14 19 -14 6 5 -8 11 1 4 20 -16 19
-20 43 -42 54 -50 19 -13 19 -13 5 6 -13 17 -11 16 17 -4 18 -12 33 -25 33
-28 0 -3 -8 0 -17 7 -10 7 -5 0 11 -14 16 -15 35 -25 42 -22 7 3 16 0 20 -6 5
-7 2 -8 -7 -3 -12 7 -12 6 0 -9 8 -10 23 -15 33 -13 10 3 21 0 25 -5 3 -7 1
-8 -5 -4 -7 4 -12 5 -12 2 0 -3 10 -10 21 -17 16 -8 20 -8 14 1 -6 9 -2 9 14
1 11 -7 21 -14 21 -17 0 -3 -6 -2 -12 2 -9 5 -8 2 1 -10 8 -9 21 -15 30 -13
16 3 71 -19 71 -29 0 -3 -5 -2 -12 2 -7 5 -8 3 -4 -5 5 -7 14 -10 21 -7 7 2
16 -2 19 -11 4 -8 13 -13 20 -10 8 3 17 -1 20 -10 4 -8 13 -13 20 -10 8 3 17
-1 20 -9 4 -10 13 -13 26 -9 14 4 20 2 18 -7 -2 -8 6 -13 20 -12 12 0 22 -3
22 -7 0 -5 7 -5 17 -2 12 5 14 3 8 -7 -6 -10 -4 -12 8 -7 9 3 18 -1 21 -10 4
-9 14 -13 26 -10 11 3 20 1 20 -4 0 -4 7 -5 17 -2 11 5 14 3 8 -6 -5 -10 -2
-11 14 -6 13 4 21 2 21 -5 0 -6 4 -8 10 -5 5 3 10 1 10 -5 0 -7 8 -9 20 -5 12
4 20 2 20 -5 0 -6 5 -8 10 -5 6 3 10 1 10 -5 0 -7 8 -9 20 -5 11 4 20 2 20 -4
0 -6 7 -7 17 -4 12 5 14 3 8 -7 -6 -10 -2 -11 19 -6 20 5 26 4 20 -5 -5 -9 1
-10 20 -5 20 5 26 4 20 -5 -5 -9 1 -10 20 -5 20 5 26 4 20 -5 -5 -9 0 -10 19
-5 14 3 29 1 32 -4 4 -6 15 -8 26 -5 11 4 19 2 19 -5 0 -8 10 -9 30 -5 19 4
30 3 30 -4 0 -6 13 -8 33 -5 24 4 28 3 17 -5 -11 -8 -3 -11 35 -10 102 1 150
-3 133 -9 -10 -4 1166 -7 2613 -7 1447 0 2620 3 2607 7 -24 7 2 8 127 9 46 0
55 2 40 10 -15 7 -11 8 18 4 22 -4 37 -2 37 4 0 6 13 8 32 4 23 -4 29 -3 24 6
-6 8 -1 10 18 5 17 -4 26 -2 26 6 0 7 8 9 20 5 12 -4 20 -2 20 5 0 7 8 9 20 5
12 -4 20 -2 20 5 0 7 8 9 20 5 12 -4 20 -2 20 5 0 7 8 9 20 5 12 -4 20 -2 20
5 0 7 8 9 21 5 15 -5 19 -4 14 4 -5 8 1 10 21 5 19 -5 25 -4 20 4 -5 8 -2 10
8 6 9 -3 16 -2 16 4 0 6 10 8 22 4 14 -3 19 -1 14 6 -5 8 -2 10 8 6 9 -3 16
-2 16 4 0 6 9 8 20 5 12 -3 22 1 26 10 3 9 12 13 20 10 8 -3 14 0 14 7 0 6 5
8 10 5 6 -3 10 -2 10 3 0 6 9 8 20 5 12 -3 22 1 26 11 3 9 10 14 14 11 12 -7
41 6 35 15 -3 5 7 8 22 7 16 -1 27 3 26 9 -1 6 8 10 20 10 12 -1 21 4 20 10
-1 6 8 10 20 10 12 -1 21 4 20 10 -1 7 5 10 16 7 9 -2 24 4 32 13 9 11 9 15 2
10 -7 -4 -13 -5 -13 -2 0 3 10 10 21 17 17 9 20 8 14 -1 -10 -15 80 32 115 61
14 12 19 18 13 14 -7 -3 -13 -4 -13 -1 0 3 10 10 21 17 15 8 19 8 15 0 -11
-18 10 -13 25 6 12 14 12 16 0 8 -9 -5 -12 -4 -7 3 4 6 13 9 20 6 7 -3 24 5
37 16 13 12 18 19 11 15 -17 -9 -15 0 5 16 11 10 14 10 9 2 -4 -7 -3 -13 2
-13 14 0 64 41 58 48 -11 10 16 31 31 25 10 -4 14 -2 10 4 -4 6 3 19 16 29 21
19 21 19 7 -1 -14 -17 -12 -17 15 2 43 31 86 70 88 80 1 4 5 7 10 5 4 -1 6 4
5 10 -2 7 3 12 10 10 6 -1 11 4 10 10 -2 7 3 12 10 10 6 -1 11 4 10 10 -2 7 3
12 10 10 6 -1 11 4 10 10 -2 7 3 12 10 10 6 -1 11 4 10 10 -2 7 3 12 10 10 6
-1 11 4 10 10 -2 7 3 12 10 10 6 -1 11 4 10 10 -2 7 3 12 10 10 6 -1 11 4 10
10 -2 7 3 12 10 10 6 -1 11 4 10 10 -2 7 3 12 10 10 6 -1 11 1 10 5 -2 5 1 9
5 10 15 4 38 33 33 42 -3 4 4 17 17 27 l22 19 -20 -24 c-11 -14 -15 -21 -8
-17 7 3 22 21 35 38 12 17 15 28 7 23 -12 -8 -12 -6 0 8 8 10 16 15 19 13 4
-5 26 20 62 69 14 19 14 19 -5 5 -11 -8 0 5 24 28 27 26 41 47 38 56 -4 9 -1
18 5 22 7 5 8 2 4 -7 -4 -8 2 -3 14 10 11 13 19 30 16 37 -3 7 0 16 6 20 7 5
8 2 3 -7 -8 -12 -6 -12 8 0 19 15 24 36 6 25 -8 -4 -8 0 0 15 12 22 27 30 16
9 -4 -7 1 -4 9 7 9 11 14 25 12 32 -3 7 0 15 6 19 7 5 8 2 3 -7 -7 -12 -6 -12
9 0 9 8 15 23 13 32 -3 11 0 17 7 16 6 -1 11 8 10 20 0 12 4 21 9 20 5 -1 12
4 15 12 3 9 0 11 -8 6 -9 -6 -9 -2 0 16 16 31 25 39 17 16 -4 -12 -3 -16 4
-11 6 3 9 15 6 25 -3 10 0 17 7 16 6 -1 11 8 10 20 0 12 4 21 10 20 6 -1 10
11 9 28 -2 22 0 26 7 15 8 -12 10 -12 16 3 3 9 3 24 0 33 -3 8 -2 12 3 9 12
-7 25 31 16 45 -3 5 -2 10 4 10 6 0 7 7 4 17 -5 11 -3 14 6 8 10 -5 11 -2 6
14 -4 13 -2 21 5 21 6 0 8 4 5 10 -3 6 -1 10 5 10 7 0 9 8 5 20 -4 12 -2 20 5
20 6 0 8 5 5 10 -3 6 -1 10 5 10 7 0 9 8 5 20 -4 11 -2 20 4 20 6 0 7 7 4 17
-5 12 -3 14 7 8 10 -6 12 -3 8 13 -4 12 -2 22 3 22 12 0 31 78 24 100 -4 12
-2 20 5 20 8 0 10 9 6 26 -5 19 -3 24 5 18 9 -5 10 1 6 24 -4 20 -2 32 4 32 7
0 8 12 4 32 -5 26 -4 30 5 18 9 -12 10 -4 5 32 -4 29 -2 49 5 53 6 4 8 22 5
43 -4 28 -3 32 4 17 6 -12 9 999 9 2665 0 1666 -3 2677 -9 2665 -7 -15 -8 -11
-4 17 3 21 1 39 -5 43 -7 4 -9 24 -5 53 5 36 4 44 -5 32 -9 -12 -10 -8 -5 18
4 20 3 32 -4 32 -6 0 -8 12 -4 32 4 23 3 29 -6 24 -8 -6 -10 -1 -5 18 4 17 2
26 -6 26 -7 0 -9 8 -5 20 4 12 2 20 -5 20 -7 0 -9 8 -5 20 4 12 2 20 -5 20 -7
0 -9 8 -5 20 3 11 2 20 -3 20 -6 0 -8 10 -4 22 4 16 2 19 -8 13 -10 -6 -12 -4
-7 8 3 10 2 17 -4 17 -6 0 -8 9 -4 20 4 12 2 20 -5 20 -6 0 -8 5 -5 10 3 6 1
10 -5 10 -7 0 -9 8 -5 20 4 12 2 20 -5 20 -6 0 -8 5 -5 10 3 6 1 10 -5 10 -7
0 -9 8 -5 21 5 16 4 19 -6 14 -9 -6 -11 -3 -6 8 3 10 2 17 -2 17 -5 0 -7 9 -4
20 3 12 -1 22 -11 26 -9 3 -14 10 -11 14 7 12 -6 41 -15 35 -5 -3 -8 7 -7 22
1 16 -3 27 -9 26 -6 -1 -10 8 -10 20 1 12 -4 21 -10 20 -7 -1 -10 6 -7 16 3
10 0 22 -6 25 -7 5 -8 1 -4 -11 8 -23 -1 -15 -17 16 -9 18 -9 22 0 16 8 -5 11
-3 8 6 -3 8 -10 13 -15 12 -5 -1 -9 8 -9 20 1 12 -4 21 -10 20 -7 -1 -10 5 -7
16 2 9 -4 24 -13 32 -15 12 -16 12 -9 0 5 -9 4 -12 -3 -7 -6 4 -9 12 -6 19 2
7 -3 21 -12 32 -8 11 -13 14 -9 8 11 -22 -4 -14 -16 8 -8 15 -8 19 0 15 18
-11 13 10 -6 25 -14 12 -16 12 -8 0 5 -9 4 -12 -3 -7 -6 4 -9 13 -6 20 3 7 -5
24 -16 37 -12 13 -18 18 -14 10 4 -9 3 -12 -4 -7 -6 4 -9 13 -5 22 3 9 -11 30
-38 56 -24 23 -35 36 -24 28 19 -14 19 -14 5 5 -36 49 -58 74 -62 69 -3 -2
-11 3 -19 13 -12 14 -12 16 0 8 8 -5 5 6 -7 23 -13 17 -28 35 -35 38 -7 4 -3
-3 8 -17 l20 -24 -22 19 c-13 10 -20 23 -17 27 5 9 -25 45 -35 43 -3 -1 -5 2
-3 7 1 5 -4 8 -10 7 -7 -2 -12 3 -10 10 1 6 -4 11 -10 10 -7 -2 -12 3 -10 10
1 6 -4 11 -10 10 -7 -2 -12 3 -10 10 1 6 -4 11 -10 10 -7 -2 -12 3 -10 10 1 6
-4 11 -10 10 -7 -2 -12 3 -10 10 1 6 -4 11 -10 10 -7 -2 -12 3 -10 10 1 6 -4
11 -10 10 -7 -2 -12 3 -10 10 1 6 -4 11 -10 10 -7 -2 -12 3 -10 10 1 6 -4 11
-10 10 -7 -2 -12 3 -10 10 1 6 -1 11 -5 10 -5 -2 -10 2 -12 7 -4 12 -44 48
-86 78 -27 19 -29 19 -15 2 14 -20 14 -20 -8 -1 -12 11 -20 21 -18 24 8 8 -53
54 -63 48 -5 -4 -13 -1 -17 5 -5 8 -3 9 6 4 9 -6 11 -4 6 4 -5 7 -14 10 -21 7
-8 -3 -19 3 -27 12 -12 15 -11 16 7 3 11 -7 7 -1 -9 13 -16 15 -35 25 -42 22
-7 -3 -16 0 -20 6 -5 7 -2 8 7 3 12 -8 12 -6 0 8 -15 19 -36 24 -25 6 4 -8 0
-8 -15 0 -11 7 -21 14 -21 17 0 3 5 2 10 -1 6 -3 10 -4 10 -1 0 3 -10 10 -21
17 -17 9 -20 8 -14 -3 3 -7 -3 -1 -15 15 -12 15 -27 27 -33 27 -6 0 -2 -7 9
-16 18 -14 18 -15 -3 -4 -13 6 -23 15 -23 20 0 5 -10 14 -21 21 -16 8 -20 8
-14 -1 6 -9 2 -9 -14 -1 -11 7 -21 14 -21 17 0 3 6 2 13 -2 7 -5 7 -1 -2 10
-8 9 -23 15 -32 13 -11 -3 -17 0 -16 7 1 6 -8 11 -20 10 -12 0 -21 4 -20 10 1
6 -8 11 -20 10 -12 0 -21 4 -20 10 1 6 -10 10 -26 9 -15 -1 -25 2 -22 7 6 9
-23 22 -35 15 -4 -3 -11 2 -14 11 -4 10 -14 14 -26 11 -11 -3 -20 -1 -20 5 0
5 -4 6 -10 3 -5 -3 -10 -1 -10 5 0 7 -6 10 -14 7 -8 -3 -17 1 -20 10 -4 9 -14
13 -26 10 -11 -3 -20 -1 -20 5 0 6 -7 7 -16 4 -10 -4 -13 -2 -8 6 5 7 0 9 -14
6 -12 -4 -22 -2 -22 4 0 6 -7 7 -16 4 -10 -4 -13 -2 -8 6 5 8 -1 9 -20 4 -20
-5 -26 -3 -21 5 5 8 1 9 -14 4 -13 -4 -21 -2 -21 5 0 7 -8 9 -20 5 -12 -4 -20
-2 -20 5 0 7 -8 9 -20 5 -12 -4 -20 -2 -20 5 0 7 -8 9 -20 5 -12 -4 -20 -2
-20 5 0 7 -8 9 -20 5 -12 -4 -20 -2 -20 5 0 8 -9 10 -26 6 -19 -5 -24 -3 -18
5 5 9 -1 10 -24 6 -19 -4 -32 -2 -32 4 0 6 -15 8 -37 4 -29 -4 -33 -3 -18 4
15 8 6 10 -40 10 -125 1 -151 2 -127 9 13 4 -1160 7 -2607 7 -1447 0 -2623 -3
-2613 -7z m-1308 -492 c0 -2 -8 -10 -17 -17 -16 -13 -17 -12 -4 4 13 16 21 21
21 13z m7891 -43 c13 -16 12 -17 -3 -4 -10 7 -18 15 -18 17 0 8 8 3 21 -13z
m-7971 -16 c0 -2 -10 -12 -22 -23 l-23 -19 19 23 c18 21 26 27 26 19z m8070
-62 c13 -14 21 -25 18 -25 -2 0 -15 11 -28 25 -13 14 -21 25 -18 25 2 0 15
-11 28 -25z m391 -412 c13 -16 12 -17 -3 -4 -10 7 -18 15 -18 17 0 8 8 3 21
-13z m-8941 -27 c0 -2 -8 -10 -17 -17 -16 -13 -17 -12 -4 4 13 16 21 21 21 13z
m5037 -480 c749 -99 1388 -426 1822 -931 260 -302 458 -666 596 -1094 49 -155
51 -152 -151 -201 -82 -20 -188 -49 -235 -63 -109 -34 -144 -34 -163 -4 -9 12
-36 83 -61 157 -349 1018 -1136 1539 -2325 1540 -226 0 -408 -17 -592 -56
-761 -160 -1271 -559 -1532 -1200 -155 -381 -258 -788 -301 -1199 -22 -200
-22 -599 -1 -800 64 -602 251 -1203 483 -1555 331 -501 815 -780 1533 -884
474 -69 948 -33 1332 100 571 199 930 529 1087 999 58 175 74 280 68 450 -10
272 -102 493 -287 688 -71 75 -247 214 -257 203 -3 -2 -20 -73 -39 -158 -66
-296 -129 -458 -249 -638 -248 -372 -666 -611 -1138 -649 -417 -34 -844 118
-1128 401 -428 427 -407 1138 45 1566 210 199 512 326 896 378 186 25 606 25
806 0 83 -11 159 -16 168 -13 37 14 2 158 -80 326 -49 100 -67 125 -138 197
-148 148 -321 209 -621 221 -304 11 -494 -59 -706 -263 -117 -112 -114 -112
-273 6 -50 37 -129 91 -176 120 -107 67 -130 88 -130 116 0 55 229 295 375
392 213 142 437 215 740 243 378 34 735 -42 997 -213 373 -243 605 -656 653
-1163 15 -157 33 -183 175 -255 319 -161 595 -418 755 -702 286 -509 297
-1130 29 -1688 -245 -511 -771 -949 -1384 -1153 -193 -64 -366 -101 -630 -134
-208 -25 -729 -26 -920 0 -395 53 -721 148 -1035 302 -265 130 -468 278 -680
496 -349 358 -569 782 -734 1420 -116 443 -164 811 -163 1254 0 404 42 746
137 1130 176 712 429 1194 826 1580 448 435 1028 674 1804 744 156 14 659 6
802 -13z m-5046 -7383 c13 -16 12 -17 -3 -4 -17 13 -22 21 -14 21 2 0 10 -8
17 -17z m8959 -27 c0 -2 -8 -10 -17 -17 -16 -13 -17 -12 -4 4 13 16 21 21 21
13z m-380 -399 c0 -2 -12 -14 -27 -28 l-28 -24 24 28 c23 25 31 32 31 24z
m-8105 -67 c10 -11 16 -20 13 -20 -3 0 -13 9 -23 20 -10 11 -16 20 -13 20 3 0
13 -9 23 -20z m7735 -205 c0 -2 -10 -9 -22 -15 -22 -11 -22 -10 -4 4 21 17 26
19 26 11z"/>
<path d="M5743 5499 c-276 -17 -465 -76 -618 -192 -73 -55 -107 -98 -146 -180
-63 -135 -65 -281 -5 -402 121 -245 466 -384 815 -331 215 33 375 110 511 246
134 134 204 290 255 567 32 172 32 218 3 237 -22 13 -156 35 -353 56 -102 11
-282 11 -462 -1z"/>
<path d="M1955 10280 c-3 -6 1 -7 9 -4 18 7 21 14 7 14 -6 0 -13 -4 -16 -10z"/>
<path d="M1362 9834 c-30 -31 -52 -57 -50 -59 2 -3 31 22 63 55 33 33 55 60
50 59 -6 0 -34 -25 -63 -55z"/>
<path d="M875 9159 c-4 -6 -5 -12 -2 -15 2 -3 7 2 10 11 7 17 1 20 -8 4z"/>
<path d="M870 2051 c0 -6 4 -13 10 -16 6 -3 7 1 4 9 -7 18 -14 21 -14 7z"/>
<path d="M1310 1427 c0 -10 110 -120 115 -115 3 2 -22 31 -55 63 -33 33 -60
56 -60 52z"/>
<path d="M9575 1140 c-3 -5 -1 -10 4 -10 6 0 11 5 11 10 0 6 -2 10 -4 10 -3 0
-8 -4 -11 -10z"/>
<path d="M1957 919 c7 -7 15 -10 18 -7 3 3 -2 9 -12 12 -14 6 -15 5 -6 -5z"/>
</g>
</svg>
